<svg width="106" height="23" viewBox="0 0 106 23" fill="none" xmlns="http://www.w3.org/2000/svg">
<g opacity="0.5" clip-path="url(#clip0_35_33)">
<path d="M43.248 23H2.57792C1.15328 23 0 21.8015 0 20.3211V2.67893C0 1.19847 1.15328 0 2.57792 0H43.248V23Z" fill="url(#paint0_linear_35_33)"/>
<path d="M103.422 23H43.248V0H103.422C104.847 0 106 1.19847 106 2.67893V20.3299C106 21.8015 104.847 23 103.422 23Z" fill="url(#paint1_linear_35_33)"/>
<path d="M13.2118 13.9498C13.2118 14.8222 13.0931 15.5184 12.8642 16.0383C12.6352 16.5582 12.3299 16.9548 11.9653 17.2192C11.6006 17.4923 11.1936 17.6686 10.7442 17.7567C10.2947 17.8448 9.85376 17.8889 9.42128 17.8889H5.12192V5.20805H9.85376C10.4643 5.20805 10.9562 5.31379 11.3462 5.52529C11.7363 5.73678 12.0416 6.00996 12.2706 6.35364C12.4995 6.69732 12.6522 7.07625 12.737 7.49042C12.8218 7.9046 12.8557 8.31877 12.8472 8.71533C12.8302 9.86973 12.5504 10.654 12.0077 11.0682C12.3638 11.2444 12.6522 11.5617 12.8811 12.0199C13.1016 12.487 13.2118 13.1303 13.2118 13.9498ZM10.5661 8.75939C10.5661 8.36284 10.5237 8.06322 10.4304 7.86935C10.3371 7.67548 10.159 7.57854 9.88768 7.57854H7.43696V10.1077H9.6672C10.0149 10.1077 10.2438 9.98429 10.371 9.74636C10.4982 9.49962 10.5661 9.16475 10.5661 8.75939ZM10.8883 13.9674C10.8883 13.6149 10.8629 13.3329 10.8035 13.1303C10.7526 12.9276 10.6763 12.7602 10.5915 12.6456C10.5067 12.531 10.4134 12.4517 10.3032 12.4165C10.2014 12.3812 10.0997 12.3636 9.99792 12.3636H7.43696V15.4038H9.80288C10.2099 15.4038 10.4982 15.2893 10.6509 15.069C10.812 14.8398 10.8883 14.4785 10.8883 13.9674ZM22.489 17.8889H14.7382V5.20805H22.3533V7.66667H17.0448V10.0019H21.9293V12.4605H17.0448V15.4126H22.489V17.8889ZM31.4608 14.1437C31.4608 16.8138 30.0786 18.1533 27.3141 18.1533C25.9742 18.1533 24.9482 17.7567 24.2443 16.9724C23.5405 16.1793 23.1928 14.9632 23.1928 13.3153H25.44C25.457 13.6766 25.4994 14.0203 25.5587 14.3199C25.6181 14.6284 25.7283 14.8839 25.881 15.1042C26.0336 15.3245 26.2286 15.492 26.4746 15.6153C26.7205 15.7387 27.0342 15.8004 27.4158 15.8004C28.0434 15.8004 28.4928 15.677 28.7726 15.4391C29.0525 15.2011 29.1966 14.7253 29.1966 14.0379C29.1966 13.6766 29.1373 13.4123 29.027 13.2536C28.9168 13.095 28.7387 12.9716 28.5013 12.8747C28.2299 12.769 27.8992 12.6897 27.5176 12.628C27.136 12.5663 26.695 12.4693 26.2032 12.3284C25.8216 12.2138 25.4654 12.0816 25.1432 11.9318C24.821 11.782 24.5326 11.5793 24.2867 11.3061C24.0408 11.033 23.8542 10.6805 23.7186 10.2487C23.5829 9.81686 23.515 9.24406 23.515 8.53908C23.515 8.01916 23.5744 7.56973 23.7016 7.1908C23.8203 6.81188 23.9899 6.48582 24.1934 6.22146C24.397 5.95709 24.6344 5.74559 24.8973 5.57816C25.1686 5.41073 25.44 5.28736 25.7198 5.19923C25.9997 5.11111 26.2795 5.04943 26.5594 5.02299C26.8392 4.99655 27.1021 4.97893 27.331 4.97893C28.1282 4.97893 28.7811 5.11111 29.273 5.36667C29.7733 5.62222 30.1549 5.9659 30.4347 6.37126C30.7146 6.78544 30.9011 7.25249 30.9944 7.7636C31.0877 8.28352 31.1386 8.79464 31.1386 9.29694H28.9338C28.8998 9.08544 28.8744 8.84751 28.849 8.59195C28.832 8.3364 28.7726 8.10728 28.6878 7.92222C28.6115 7.75479 28.4843 7.60498 28.2893 7.4728C28.0942 7.34061 27.789 7.27012 27.3734 7.27012C27.0512 7.27012 26.7798 7.29655 26.5678 7.35824C26.3558 7.41992 26.1947 7.50805 26.076 7.62261C25.9573 7.73716 25.8725 7.89579 25.8301 8.08084C25.7877 8.2659 25.7622 8.49502 25.7622 8.75058C25.7622 9.059 25.8301 9.27931 25.9573 9.41149C26.0845 9.54368 26.3304 9.65824 26.6866 9.75517C27.0597 9.86092 27.4328 9.94904 27.8144 10.0195C28.196 10.09 28.5606 10.1782 28.9168 10.2751C29.273 10.372 29.6037 10.5042 29.909 10.6716C30.2142 10.8391 30.4856 11.0594 30.7146 11.3502C30.9435 11.641 31.1301 12.0111 31.2573 12.4605C31.4014 12.91 31.4608 13.4739 31.4608 14.1437ZM39.8814 7.65785H37.0915V17.8889H34.7765V7.65785H31.9866V5.20805H39.873V7.65785H39.8814Z" fill="white"/>
<path d="M54.8402 13.2272C54.7893 13.8881 54.679 14.5138 54.5094 15.113C54.3398 15.7123 54.0939 16.2322 53.7717 16.6728C53.4494 17.1222 53.0254 17.4747 52.5082 17.7391C51.9909 18.0035 51.3634 18.1356 50.6256 18.1356C49.7776 18.1356 49.0568 17.9858 48.4632 17.6862C47.8696 17.3866 47.3947 16.946 47.0216 16.382C46.657 15.8092 46.3856 15.1042 46.2245 14.2671C46.0549 13.4299 45.9701 12.4782 45.9701 11.4031C45.9701 10.4161 46.0634 9.51724 46.2414 8.72414C46.4195 7.93104 46.6994 7.25249 47.081 6.68851C47.4626 6.13333 47.9459 5.70153 48.5226 5.40192C49.1077 5.1023 49.803 4.95249 50.6086 4.95249C51.4227 4.95249 52.0842 5.08468 52.6014 5.34904C53.1187 5.61341 53.5258 5.95709 53.8395 6.38008C54.1448 6.80307 54.3653 7.28774 54.501 7.82529C54.6366 8.36284 54.7299 8.9092 54.7893 9.44674H52.6014C52.5506 9.16475 52.4912 8.89157 52.4234 8.63602C52.364 8.38046 52.2622 8.15134 52.135 7.96628C52.0078 7.78123 51.8298 7.63142 51.6093 7.51686C51.3888 7.4023 51.092 7.34943 50.7189 7.34943C50.2694 7.34943 49.8878 7.42874 49.5826 7.57855C49.2773 7.72835 49.0229 7.9751 48.8363 8.31878C48.6498 8.66245 48.5141 9.11188 48.4293 9.66705C48.3445 10.2222 48.3106 10.9096 48.3106 11.7291C48.3106 12.5575 48.3699 13.2184 48.4802 13.7383C48.5904 14.2494 48.7515 14.6548 48.955 14.9368C49.1586 15.2276 49.4045 15.4215 49.7013 15.5272C49.9981 15.633 50.3203 15.6858 50.685 15.6858C51.0581 15.6858 51.3464 15.6241 51.5669 15.5096C51.7874 15.395 51.957 15.2276 52.0842 15.0073C52.2114 14.787 52.3131 14.5314 52.381 14.2318C52.4573 13.9322 52.5251 13.5973 52.6014 13.2184H54.8402V13.2272ZM64.1258 17.8889H61.8192V12.4165H58.3424V17.8889H56.0358V5.20805H58.3424V9.94023H61.8192V5.20805H64.1258V17.8889ZM73.8523 17.8889H71.4355L70.7995 15.2716H67.7298L67.1022 17.8889H64.7702L68.1114 5.20805H70.401L73.8523 17.8889ZM70.2229 12.91L69.2731 8.82989L68.2979 12.91H70.2229ZM80.6278 17.8889L77.1002 10.1694V17.8889H74.7936V5.20805H77.0578L80.6109 12.8747V5.20805H82.9005V17.8889H80.6278ZM93.3054 17.8889H91.4314V16.6023C91.2957 16.9107 91.1261 17.1575 90.9226 17.3513C90.719 17.5452 90.4986 17.695 90.2611 17.8096C90.0237 17.9241 89.7693 17.9946 89.5149 18.0387C89.2605 18.0828 89.0061 18.1004 88.7602 18.1004C87.9122 18.1004 87.1998 17.933 86.6317 17.5893C86.0635 17.2456 85.6056 16.7785 85.2579 16.1793C84.9102 15.5801 84.6643 14.8663 84.5202 14.0467C84.376 13.2272 84.2997 12.346 84.2997 11.4031C84.2997 7.10268 85.8515 4.95249 88.9637 4.95249C89.7354 4.95249 90.3798 5.08468 90.9141 5.34023C91.4483 5.59579 91.8808 5.94828 92.2115 6.37127C92.5422 6.80307 92.7797 7.29655 92.9238 7.84291C93.068 8.39809 93.1443 8.97088 93.1443 9.55249H90.7869C90.7869 9.29694 90.7699 9.03257 90.736 8.75939C90.7021 8.48621 90.6258 8.24828 90.507 8.03678C90.3883 7.82529 90.2018 7.64904 89.9558 7.51686C89.7099 7.38468 89.3792 7.31418 88.9552 7.31418C88.5312 7.31418 88.1666 7.38468 87.8782 7.53448C87.5814 7.68429 87.344 7.91341 87.1574 8.23065C86.9709 8.54789 86.8352 8.96207 86.7504 9.46437C86.6656 9.96667 86.6232 10.5747 86.6232 11.2797C86.6232 12.0552 86.6571 12.7249 86.7334 13.2801C86.8098 13.8353 86.937 14.2847 87.1235 14.6195C87.3101 14.9632 87.556 15.21 87.8613 15.3686C88.1666 15.5272 88.5566 15.6065 89.0315 15.6065C89.3029 15.6065 89.5573 15.5625 89.8032 15.4743C90.0491 15.3862 90.2611 15.2452 90.4392 15.0602C90.6173 14.8751 90.7614 14.6284 90.8632 14.3375C90.965 14.0467 91.0074 13.6943 90.9989 13.2801H88.828V10.9448H93.3224V17.8889H93.3054ZM102.489 17.8889H94.7555V5.20805H102.354V7.66667H97.0621V10.0019H101.93V12.4605H97.0621V15.4126H102.489V17.8889Z" fill="#363636"/>
</g>
<defs>
<linearGradient id="paint0_linear_35_33" x1="21.6243" y1="23" x2="21.6243" y2="0" gradientUnits="userSpaceOnUse">
<stop stop-color="#1C1C1C"/>
<stop offset="1" stop-color="#4B4B4B"/>
</linearGradient>
<linearGradient id="paint1_linear_35_33" x1="74.6243" y1="23" x2="74.6243" y2="0" gradientUnits="userSpaceOnUse">
<stop stop-color="#BCBCBC"/>
<stop offset="1" stop-color="#F3F3F3"/>
</linearGradient>
<clipPath id="clip0_35_33">
<rect width="106" height="23" fill="white"/>
</clipPath>
</defs>
</svg>
