<svg width="16" height="16" viewBox="0 0 16 16" fill="none" xmlns="http://www.w3.org/2000/svg">
<path d="M14.75 7.625C14.7526 8.6149 14.5213 9.59141 14.075 10.475C13.5458 11.5338 12.7323 12.4244 11.7256 13.047C10.7189 13.6695 9.55868 13.9995 8.375 14C7.3851 14.0026 6.40859 13.7713 5.525 13.325L1.25 14.75L2.675 10.475C2.2287 9.59141 1.99742 8.6149 2 7.625C2.00046 6.44132 2.33046 5.28114 2.95304 4.27441C3.57562 3.26769 4.46619 2.45417 5.525 1.925C6.40859 1.4787 7.3851 1.24742 8.375 1.25L8.75 1.25C10.3133 1.33624 11.7898 1.99607 12.8969 3.10314C14.0039 4.21022 14.6638 5.68674 14.75 7.25L14.75 7.625Z" stroke="white" stroke-linecap="round" stroke-linejoin="round"/>
</svg>
