<svg width="13" height="17" viewBox="0 0 13 17" fill="none" xmlns="http://www.w3.org/2000/svg">
<path d="M10.2482 7.88809C11.128 7.44028 11.6785 6.65163 11.5499 5.33776C11.3767 3.54223 9.82507 2.94015 7.86629 2.76868L7.86592 0.278137H6.34824L6.34782 2.70319C5.94851 2.70319 5.54145 2.71103 5.13624 2.71915L5.13591 0.278468L3.6196 0.278326L3.61932 2.76826C3.2907 2.77497 2.96798 2.78134 2.65287 2.78134V2.77397L0.559509 2.77312L0.559793 4.392C0.559793 4.392 1.68056 4.37093 1.6621 4.39138C2.2766 4.39181 2.47725 4.74833 2.53496 5.05608L2.53543 7.89333V11.8787C2.50837 12.0719 2.39452 12.3805 1.96484 12.3811C1.98439 12.3982 0.860834 12.3809 0.860834 12.3809L0.559793 14.1911H2.53448C2.90244 14.1916 3.26397 14.1973 3.61866 14.2001L3.61998 16.7188L5.13591 16.7193L5.13548 14.2269C5.55255 14.2354 5.95512 14.2391 6.34834 14.2386L6.34791 16.7193H7.86554L7.86639 14.2047C10.4174 14.0583 12.2034 13.4163 12.4254 11.0227C12.6044 9.09557 11.6966 8.23537 10.2482 7.88809ZM5.1725 4.50127C6.02845 4.50127 8.7204 4.22894 8.72078 6.0154C8.7204 7.7281 6.0293 7.52802 5.1725 7.52802V4.50127ZM5.17184 12.3933L5.1725 9.05604C6.20091 9.05576 9.42652 8.76038 9.42694 10.7239C9.42737 12.607 6.20091 12.3926 5.17184 12.3933Z" fill="white"/>
</svg>
