<svg width="34" height="34" viewBox="0 0 34 34" fill="none" xmlns="http://www.w3.org/2000/svg">
<rect width="34" height="34" rx="5" fill="#F2F2F2"/>
<path d="M19.2075 7.28973H14.0151V16.77H19.2075V7.28973Z" fill="#FF5F00"/>
<path d="M14.3448 12.0299C14.3448 10.1037 15.2349 8.39532 16.603 7.28974C15.5975 6.48577 14.3282 6 12.9436 6C9.66326 6 7.00928 8.69673 7.00928 12.0299C7.00928 15.363 9.66326 18.0597 12.9436 18.0597C14.3282 18.0597 15.5975 17.5739 16.603 16.77C15.2349 15.6812 14.3448 13.956 14.3448 12.0299Z" fill="#EB001B"/>
<path d="M26.2131 12.0299C26.2131 15.363 23.5592 18.0597 20.2789 18.0597C18.8942 18.0597 17.6249 17.5739 16.6194 16.77C18.0041 15.6646 18.8777 13.956 18.8777 12.0299C18.8777 10.1037 17.9876 8.39532 16.6194 7.28974C17.6249 6.48577 18.8942 6 20.2789 6C23.5593 6 26.2131 8.71351 26.2131 12.0299Z" fill="#F79E1B"/>
<path d="M15.322 26.9093H13.7667L14.7392 20.7957H16.2953L15.322 26.9093Z" fill="#00579F"/>
<path d="M20.9618 20.9451C20.6548 20.8218 20.1685 20.6846 19.5665 20.6846C18.0306 20.6846 16.9487 21.5168 16.9415 22.7075C16.9286 23.5854 17.7163 24.073 18.3046 24.3662C18.9066 24.6651 19.1108 24.8603 19.1108 25.1273C19.1044 25.5365 18.6245 25.726 18.1768 25.726C17.5556 25.726 17.2228 25.6288 16.7173 25.4009L16.5123 25.3029L16.2945 26.6749C16.6594 26.844 17.3313 26.9934 18.0298 27C19.6622 27 20.7247 26.18 20.7376 24.9125C20.744 24.2167 20.3276 23.6834 19.4315 23.2473C18.8874 22.9672 18.5538 22.7794 18.5538 22.4927C18.5602 22.2322 18.8359 21.9659 19.45 21.9659C19.9555 21.9529 20.3276 22.0762 20.609 22.2003L20.7496 22.2649L20.9618 20.9451Z" fill="#00579F"/>
<path d="M23.029 24.7435C23.1568 24.3923 23.6503 23.0334 23.6503 23.0334C23.6439 23.0464 23.7781 22.6757 23.8552 22.4478L23.9638 22.9746C23.9638 22.9746 24.2587 24.4381 24.3222 24.7435C24.0795 24.7435 23.3368 24.7435 23.029 24.7435ZM24.9499 20.7957H23.7467C23.3754 20.7957 23.0941 20.9059 22.9334 21.3028L20.6226 26.9093H22.255C22.255 26.9093 22.5235 26.1547 22.5813 25.9922C22.7606 25.9922 24.3487 25.9922 24.5786 25.9922C24.6236 26.207 24.7643 26.9093 24.7643 26.9093H26.2046L24.9499 20.7957Z" fill="#00579F"/>
<path d="M12.4671 20.7957L10.9432 24.9648L10.7768 24.1196C10.4955 23.1436 9.61142 22.0844 8.62604 21.5568L10.0213 26.9028H11.6666L14.1115 20.7957H12.4671Z" fill="#00579F"/>
<path d="M9.52862 20.7957H7.02578L7.00006 20.919C8.95234 21.4261 10.2456 22.6495 10.7768 24.1187L10.2327 21.3093C10.1435 20.919 9.86779 20.8087 9.52862 20.7957Z" fill="#FAA61A"/>
</svg>
