<svg width="35" height="35" viewBox="0 0 35 35" fill="none" xmlns="http://www.w3.org/2000/svg">
<rect x="1" y="1" width="33" height="33" rx="4" fill="url(#paint0_linear_150_2)" stroke="#8DC641" stroke-width="2"/>
<path d="M22.4246 13.8533L19.2792 18.4334H22.4246V13.8533ZM23.6189 12V18.4334H25V19.5965H23.6189V22H22.4246V19.5965H17.9817V18.3417L22.464 12H23.6189ZM16.6596 20.832V22H10V21.9662C10.0639 20.8707 10.3539 20.0695 10.9043 19.4083C11.3565 18.8629 11.902 18.4527 13.0275 17.7625C13.0226 17.7625 13.4256 17.5164 13.5387 17.444C14.1432 17.0627 14.5315 16.7683 14.8362 16.4208C15.2195 15.9817 15.421 15.5039 15.421 14.944C15.421 13.8533 14.6347 13.1004 13.4993 13.1004C12.1822 13.1004 11.5039 14.0849 11.4646 15.5666V15.5956H10.2801V15.5666L10.2654 15.2963C10.2654 13.3176 11.5777 12 13.5534 12C15.4849 12 16.7431 13.1486 16.7431 14.9199C16.7431 15.8224 16.4138 16.556 15.7798 17.2075C15.3031 17.695 14.8116 18.028 13.7009 18.6892C13.6861 18.6988 13.6714 18.7085 13.6566 18.7181C13.6026 18.7471 13.3617 18.8871 13.2978 18.9257C12.767 19.2394 12.4476 19.4566 12.1625 19.722C11.8136 20.0502 11.5826 20.4073 11.4744 20.832H16.6596Z" fill="white"/>
<defs>
<linearGradient id="paint0_linear_150_2" x1="3.5" y1="2" x2="32.5" y2="35.5" gradientUnits="userSpaceOnUse">
<stop stop-color="#2B2B2B"/>
<stop offset="1" stop-color="#020202"/>
</linearGradient>
</defs>
</svg>
