<svg width="35" height="35" viewBox="0 0 35 35" fill="none" xmlns="http://www.w3.org/2000/svg">
<rect width="35" height="35" rx="5" fill="#EE2A23"/>
<path d="M18.0012 10C19.0613 10 19.3944 10.781 19.6738 11.5607C19.7912 11.8918 22.5459 19.6403 22.6288 19.8728C22.6508 19.9377 22.6359 20.0442 22.5388 20.0828C22.4411 20.1207 21.0098 20.6924 20.9305 20.723C20.8513 20.7542 20.7625 20.7089 20.7339 20.6275C20.7041 20.5473 20.11 18.8581 20.0433 18.6696H15.9603C15.896 18.8581 15.2947 20.551 15.2679 20.6275C15.2405 20.7052 15.1553 20.7579 15.0707 20.723C14.9861 20.6887 13.5494 20.1171 13.4636 20.0828C13.3814 20.0497 13.3438 19.9536 13.3724 19.8728C13.4737 19.5827 16.1867 11.9585 16.325 11.5607C16.5943 10.7926 16.9387 10 18.0012 10ZM13.1543 23.8646C13.0685 23.8646 13 23.938 13 24.0274V25.8384C13 25.9278 13.0685 26 13.1543 26H22.8439C22.9315 26 23 25.9278 23 25.8384V24.0274C23 23.938 22.9315 23.8646 22.8439 23.8646H13.1543ZM17.9917 12.5302L16.6116 16.7869H19.3944L18.0095 12.5302H17.9917Z" fill="white"/>
</svg>
