<svg width="35" height="35" viewBox="0 0 35 35" fill="none" xmlns="http://www.w3.org/2000/svg">
<rect width="35" height="35" rx="5" fill="url(#paint0_linear_150_5)"/>
<path d="M9.468 18.12C9.036 18.12 8.65867 18.0227 8.336 17.828C8.01333 17.6333 7.76267 17.3653 7.584 17.024C7.408 16.68 7.32 16.2853 7.32 15.84C7.32 15.3867 7.41067 14.9893 7.592 14.648C7.77333 14.3067 8.02533 14.04 8.348 13.848C8.67067 13.656 9.044 13.56 9.468 13.56C9.90267 13.56 10.2813 13.6573 10.604 13.852C10.9267 14.0467 11.1773 14.316 11.356 14.66C11.5347 15.0013 11.624 15.3947 11.624 15.84C11.624 16.288 11.5333 16.684 11.352 17.028C11.1733 17.3693 10.9227 17.6373 10.6 17.832C10.2773 18.024 9.9 18.12 9.468 18.12ZM9.468 17.216C9.852 17.216 10.1373 17.088 10.324 16.832C10.5107 16.576 10.604 16.2453 10.604 15.84C10.604 15.4213 10.5093 15.088 10.32 14.84C10.1307 14.5893 9.84667 14.464 9.468 14.464C9.20933 14.464 8.996 14.5227 8.828 14.64C8.66267 14.7547 8.54 14.916 8.46 15.124C8.38 15.3293 8.34 15.568 8.34 15.84C8.34 16.2587 8.43467 16.5933 8.624 16.844C8.816 17.092 9.09733 17.216 9.468 17.216ZM17.1493 18.908V18H12.4973V13.68H13.4213V17.144H14.6413V13.68H15.5653V17.144H16.7853V13.68H17.7093V17.144H18.1133V18.908H17.1493ZM19.9633 18.12C19.6513 18.12 19.3873 18.0613 19.1713 17.944C18.9553 17.824 18.7913 17.6653 18.6793 17.468C18.57 17.2707 18.5153 17.0533 18.5153 16.816C18.5153 16.608 18.55 16.4213 18.6193 16.256C18.6886 16.088 18.7953 15.944 18.9393 15.824C19.0833 15.7013 19.27 15.6013 19.4993 15.524C19.6726 15.468 19.8753 15.4173 20.1073 15.372C20.342 15.3267 20.5953 15.2853 20.8673 15.248C21.142 15.208 21.4286 15.1653 21.7273 15.12L21.3833 15.316C21.386 15.0173 21.3193 14.7973 21.1833 14.656C21.0473 14.5147 20.818 14.444 20.4953 14.444C20.3006 14.444 20.1126 14.4893 19.9313 14.58C19.75 14.6707 19.6233 14.8267 19.5513 15.048L18.6713 14.772C18.778 14.4067 18.9806 14.1133 19.2793 13.892C19.5806 13.6707 19.986 13.56 20.4953 13.56C20.8793 13.56 21.2166 13.6227 21.5073 13.748C21.8006 13.8733 22.018 14.0787 22.1593 14.364C22.2366 14.516 22.2833 14.672 22.2993 14.832C22.3153 14.9893 22.3233 15.1613 22.3233 15.348V18H21.4793V17.064L21.6193 17.216C21.4246 17.528 21.1966 17.7573 20.9353 17.904C20.6766 18.048 20.3526 18.12 19.9633 18.12ZM20.1553 17.352C20.374 17.352 20.5606 17.3133 20.7153 17.236C20.87 17.1587 20.9926 17.064 21.0833 16.952C21.1766 16.84 21.2393 16.7347 21.2713 16.636C21.322 16.5133 21.35 16.3733 21.3553 16.216C21.3633 16.056 21.3673 15.9267 21.3673 15.828L21.6633 15.916C21.3726 15.9613 21.1233 16.0013 20.9153 16.036C20.7073 16.0707 20.5286 16.104 20.3793 16.136C20.23 16.1653 20.098 16.1987 19.9833 16.236C19.8713 16.276 19.7766 16.3227 19.6993 16.376C19.622 16.4293 19.562 16.4907 19.5193 16.56C19.4793 16.6293 19.4593 16.7107 19.4593 16.804C19.4593 16.9107 19.486 17.0053 19.5393 17.088C19.5926 17.168 19.67 17.232 19.7713 17.28C19.8753 17.328 20.0033 17.352 20.1553 17.352ZM23.0447 18.96V17.244C23.2794 17.244 23.446 17.164 23.5447 17.004C23.6434 16.844 23.722 16.5667 23.7807 16.172C23.818 15.9373 23.8487 15.6893 23.8727 15.428C23.8967 15.1667 23.9167 14.8907 23.9327 14.6C23.9514 14.3093 23.9674 14.0027 23.9807 13.68H27.1967V17.244H27.6327V18.96H26.7207V18H23.9527V18.96H23.0447ZM24.3367 17.244H26.2367V14.436H24.8247C24.8167 14.596 24.8074 14.76 24.7967 14.928C24.786 15.0933 24.774 15.2587 24.7607 15.424C24.7474 15.5893 24.7327 15.748 24.7167 15.9C24.7034 16.0493 24.6874 16.188 24.6687 16.316C24.6394 16.54 24.6034 16.724 24.5607 16.868C24.518 17.012 24.4434 17.1373 24.3367 17.244Z" fill="white"/>
<defs>
<linearGradient id="paint0_linear_150_5" x1="17.5" y1="0" x2="17.5" y2="35" gradientUnits="userSpaceOnUse">
<stop stop-color="#024B45"/>
<stop offset="0.8125" stop-color="#024B45"/>
<stop offset="0.8126" stop-color="#E1E32A"/>
<stop offset="1" stop-color="#E1E32A"/>
</linearGradient>
</defs>
</svg>
