<svg width="35" height="35" viewBox="0 0 35 35" fill="none" xmlns="http://www.w3.org/2000/svg">
<rect width="35" height="35" rx="5" fill="url(#paint0_linear_150_3)"/>
<path fill-rule="evenodd" clip-rule="evenodd" d="M12.3139 19.8817V16.4398C12.3139 15.4635 11.7807 15 10.8853 15C10.1408 15 9.49698 15.4339 9.21529 15.8679C9.0342 15.3254 8.58149 15 7.8672 15C7.12274 15 6.47887 15.4536 6.27767 15.7396V15.1183H5V19.8817H6.27767V16.6765C6.46881 16.4103 6.84105 16.1144 7.2837 16.1144C7.80684 16.1144 8.00805 16.43 8.00805 16.8738V19.8817H9.29577V16.6667C9.47686 16.4103 9.84909 16.1144 10.3018 16.1144C10.8249 16.1144 11.0262 16.43 11.0262 16.8738V19.8817H12.3139ZM15.825 20C14.2254 20 13.2596 18.856 13.2596 17.4951C13.2596 16.144 14.2254 15 15.825 15C17.4346 15 18.4004 16.144 18.4004 17.4951C18.4004 18.856 17.4346 20 15.825 20ZM15.825 18.8856C16.6197 18.8856 17.0724 18.2446 17.0724 17.4951C17.0724 16.7554 16.6197 16.1144 15.825 16.1144C15.0302 16.1144 14.5875 16.7554 14.5875 17.4951C14.5875 18.2446 15.0302 18.8856 15.825 18.8856ZM23.9034 19.8817V16.5187C23.9034 15.5917 23.3903 15 22.3239 15C21.5292 15 20.9356 15.3748 20.6237 15.7396V15.1183H19.3461V19.8817H20.6237V16.6765C20.835 16.3905 21.2274 16.1144 21.7304 16.1144C22.2736 16.1144 22.6258 16.3412 22.6258 17.002V19.8817H23.9034ZM27.4245 20C25.8249 20 24.8592 18.856 24.8592 17.4951C24.8592 16.144 25.8249 15 27.4245 15C29.0342 15 30 16.144 30 17.4951C30 18.856 29.0342 20 27.4245 20ZM27.4245 18.8856C28.2193 18.8856 28.672 18.2446 28.672 17.4951C28.672 16.7554 28.2193 16.1144 27.4245 16.1144C26.6298 16.1144 26.1871 16.7554 26.1871 17.4951C26.1871 18.2446 26.6298 18.8856 27.4245 18.8856Z" fill="white"/>
<defs>
<linearGradient id="paint0_linear_150_3" x1="17.5" y1="0" x2="17.5" y2="35" gradientUnits="userSpaceOnUse">
<stop stop-color="#333741"/>
<stop offset="1" stop-color="#1C1E23"/>
</linearGradient>
</defs>
</svg>
