<svg width="35" height="35" viewBox="0 0 35 35" fill="none" xmlns="http://www.w3.org/2000/svg">
<rect width="35" height="35" rx="5" fill="#F91F2B"/>
<g clip-path="url(#clip0_150_6)">
<path fill-rule="evenodd" clip-rule="evenodd" d="M18 2.27429C26.6857 2.27429 33.7257 9.40572 33.7257 18C33.7257 26.6857 26.5943 33.7257 18 33.7257C9.31428 33.8172 2.18285 26.7772 2.18285 18C2.18285 9.40572 9.31428 2.27429 18 2.27429Z" fill="#F91F2B"/>
<path fill-rule="evenodd" clip-rule="evenodd" d="M29.9771 12.5143H30.16C30.0686 12.9714 29.8857 13.2457 29.6114 13.52C29.2457 13.7029 28.88 13.7943 28.24 13.7943H27.6914C25.68 13.7029 25.2229 15.8057 25.4057 17.4514C25.5886 18.4571 25.9543 19.4629 26.5029 20.1943C27.0514 20.7429 27.7829 21.1086 28.5143 20.56C29.0629 20.1029 29.2457 19.0057 29.2457 18.4571C29.2457 17.36 28.88 15.7143 27.5086 15.7143C27.1429 15.7143 26.7771 15.8971 26.4114 16.2629C26.2286 16.5371 26.1371 17.0857 26.1371 17.7257H25.8629C25.68 16.4457 26.32 15.3486 27.6914 15.2571C29.3371 15.2571 30.3429 16.5371 30.3429 18.1829C30.3429 19.8286 29.3371 21.3829 27.6914 21.3829C26.7771 21.3829 26.1371 21.1086 25.5886 20.3771C25.04 19.7371 24.8571 18.7314 24.8571 17.4514C24.8571 15.8057 25.1314 14.8 25.5886 14.0686C26.1371 13.3371 26.7771 12.9714 27.7829 12.9714H28.6057C29.1543 13.0629 29.52 12.9714 29.7029 12.88C29.7943 12.7886 29.9771 12.6971 29.9771 12.5143Z" fill="white"/>
<path fill-rule="evenodd" clip-rule="evenodd" d="M18.4571 15.2571L20.4686 19.7371L22.2971 15.6229L22.48 15.2571H24.0343V15.44H23.8514C23.6686 15.44 23.3943 15.6229 23.3943 15.8971V19.28V20.6514C23.3943 20.9257 23.5771 21.1086 23.8514 21.1086H24.0343V21.2H23.0286H21.9314V21.0171H22.1143C22.2971 21.0171 22.5714 20.8343 22.5714 20.56V19.1886V16.1714L20.2857 21.2H20.1943L18 16.08V20.56C18 20.8343 18.1829 21.0171 18.3657 21.0171H18.4571V21.2H17.4514H16.9029V21.0171H17.0857C17.2686 21.0171 17.5429 20.8343 17.5429 20.56V15.8971C17.5429 15.6229 17.4514 15.44 17.0857 15.44C16.8114 15.44 16.5371 15.7143 16.3543 16.08L14.2514 20.7429C14.0686 21.1086 13.7943 21.2914 13.4286 21.2914L12.9714 21.2L12.88 20.56C13.0629 20.7429 13.2457 20.8343 13.3371 20.8343C13.6114 20.9257 13.7943 20.8343 13.8857 20.6514L14.16 20.1029L12.24 16.1714C12.0571 15.8057 11.8743 15.5314 11.6 15.5314V15.3486H12.6971H13.52V15.5314H13.3371C13.1543 15.5314 13.1543 15.8057 13.2457 15.9886L14.7086 19.0971L16.08 16.1714C16.2629 15.8971 16.08 15.6229 15.8971 15.6229V15.44H18.4571V15.2571Z" fill="white"/>
<path fill-rule="evenodd" clip-rule="evenodd" d="M9.77143 19.28V15.8971V15.7143H7.02857V15.9886V19.3714V20.7429C7.02857 21.0171 7.21143 21.2 7.39428 21.2H7.57714H6.57143H5.56571V21.0171H5.65714C5.84 21.0171 6.02285 20.8343 6.02285 20.56V19.1886V15.8057C6.02285 15.5314 5.84 15.3486 5.65714 15.3486H5.56571V15.1657H6.57143H6.75428H7.66857H9.22285H9.95428H10.2286H11.2343V15.3486H11.1429C10.96 15.3486 10.7771 15.5314 10.7771 15.8057V19.1886V20.56C10.7771 20.8343 10.96 21.0171 11.1429 21.0171H11.3257V21.2H10.32H9.22285V21.0171H9.40571C9.58857 21.0171 9.77143 20.8343 9.77143 20.56V19.28Z" fill="white"/>
</g>
<defs>
<clipPath id="clip0_150_6">
<rect width="32" height="32" fill="white" transform="translate(2 2)"/>
</clipPath>
</defs>
</svg>
