<svg width="17" height="15" viewBox="0 0 17 15" fill="none" xmlns="http://www.w3.org/2000/svg">
<path d="M9.7964 8.06115V8.05899C9.7036 8.06547 9.22446 8.09352 8.15827 8.09352C7.30576 8.09352 6.70791 8.06978 6.4964 8.05899V8.06115C3.21799 7.91655 0.772662 7.34676 0.772662 6.66259C0.772662 5.98058 3.22014 5.40863 6.4964 5.26403V7.49352C6.71007 7.50863 7.32518 7.54532 8.17338 7.54532C9.19209 7.54532 9.70144 7.50216 9.7964 7.49352V5.26619C13.0683 5.41295 15.5072 5.98273 15.5072 6.66475C15.5072 7.34676 13.0662 7.91655 9.7964 8.06331M9.7964 5.03525V3.04101H14.3612V0H1.93381V3.04101H6.49856V5.03525C2.78849 5.20575 0 5.93957 0 6.82014C0 7.70072 2.79065 8.43453 6.49856 8.60719V15H9.79856V8.60719C13.5022 8.43669 16.2863 7.70288 16.2863 6.8223C16.2863 5.94388 13.5022 5.20791 9.79856 5.03741" fill="white"/>
</svg>
