<svg width="17" height="14" viewBox="0 0 17 14" fill="none" xmlns="http://www.w3.org/2000/svg">
<path d="M1 1.66522V5.66627H5.00105" stroke="#262626" stroke-linecap="round" stroke-linejoin="round"/>
<path d="M15.6705 12.3347V8.33368H11.6694" stroke="#262626" stroke-linecap="round" stroke-linejoin="round"/>
<path d="M13.9967 4.99947C13.6585 4.04375 13.0838 3.18927 12.326 2.51577C11.5682 1.84227 10.6522 1.3717 9.66342 1.14797C8.67461 0.924237 7.64524 0.954638 6.67136 1.23633C5.69748 1.51803 4.81083 2.04184 4.09415 2.75889L1 5.66632M15.6705 8.33368L12.5764 11.2411C11.8597 11.9582 10.973 12.482 9.99916 12.7637C9.02528 13.0454 7.99591 13.0758 7.0071 12.852C6.0183 12.6283 5.10228 12.1577 4.34452 11.4842C3.58677 10.8107 3.01197 9.95625 2.67377 9.00053" stroke="#262626" stroke-linecap="round" stroke-linejoin="round"/>
</svg>
