<svg width="8" height="10" viewBox="0 0 8 10" fill="none" xmlns="http://www.w3.org/2000/svg">
<path d="M0.768 9.94301C0.848883 9.98508 0.939696 10.0043 1.03069 9.9987C1.12169 9.99306 1.20943 9.96275 1.2845 9.91101L7.7845 5.41101C7.85092 5.365 7.9052 5.30357 7.94269 5.23199C7.98017 5.16041 7.99976 5.08082 7.99976 5.00001C7.99976 4.91921 7.98017 4.83961 7.94269 4.76804C7.9052 4.69646 7.85092 4.63503 7.7845 4.58901L1.2845 0.0890145C1.20949 0.0371108 1.1217 0.00671698 1.03066 0.00112399C0.939609 -0.00446901 0.848767 0.014952 0.767965 0.0572841C0.687163 0.0996162 0.619482 0.163246 0.572248 0.241284C0.525015 0.319323 0.500031 0.408795 0.5 0.500015V9.50001C0.499985 9.59128 0.524952 9.68081 0.572194 9.75891C0.619436 9.837 0.687151 9.90067 0.768 9.94301Z" fill="#0E41F5"/>
</svg>
