<svg width="88" height="33" viewBox="0 0 88 33" fill="none" xmlns="http://www.w3.org/2000/svg">
<path d="M36.6297 12.4559H36.5825C29.9723 12.4559 25.553 16.1969 24.6653 22.5367L24.6417 22.7366C23.754 29.124 27.1205 32.8889 33.7307 32.8889H33.7779C40.3361 32.8889 44.7602 29.124 45.6431 22.7366L45.6667 22.5367C46.5543 16.1969 43.1879 12.4559 36.6297 12.4559ZM40.1425 22.5367L40.1189 22.7366C39.6515 26.0779 37.5645 27.9341 34.4672 27.9341H34.42C31.2755 27.9341 29.7032 26.0779 30.1706 22.7319L30.1942 22.532C30.6617 19.2383 32.7486 17.4059 35.8931 17.4059H35.9403C39.0377 17.4106 40.6099 19.2431 40.1425 22.5367Z" fill="#0E41F5"/>
<path d="M64.6615 12.7034L56.8709 27.6866H56.6254L53.0134 12.7034H47.1446L52.2297 32.6414H59.8927L70.5303 12.7034H64.6615Z" fill="#0E41F5"/>
<path d="M33.4332 8.41973H33.4521C35.6854 8.41973 37.0877 7.42973 37.5315 5.80671L37.574 5.64964H35.4729L35.4304 5.76387C35.2463 6.36358 34.6419 6.71579 33.792 6.71579H33.7732C32.7061 6.71579 32.1631 6.15892 32.2953 5.19748L32.3048 5.14512C32.4275 4.22652 33.1452 3.68868 34.2123 3.68868H34.2311C35.0716 3.68868 35.5721 4.01709 35.5957 4.60729L35.6051 4.72152H37.7062V4.56445C37.7156 2.95094 36.6014 1.97998 34.387 1.97998H34.3681C31.979 1.97998 30.4114 3.1556 30.1376 5.14988L30.1281 5.1832C29.8496 7.21079 31.0677 8.41973 33.4332 8.41973Z" fill="black"/>
<path d="M43.7214 1.98476H43.7025C42.1633 1.98476 41.2426 2.61302 40.6477 3.87432H40.5863C40.9263 2.9462 41.1104 2.11802 41.2426 1.12803L41.4079 0H39.2549L38.0981 8.31503H40.2511L40.6288 5.57826C40.813 4.45023 41.4173 3.79341 42.3711 3.79341H42.39C43.2823 3.79341 43.8253 4.35028 43.6931 5.3022L43.2729 8.31979H45.4259L45.9169 4.77864C46.1719 2.90336 45.3315 1.98476 43.7214 1.98476Z" fill="black"/>
<path d="M49.34 8.41973H49.3825C50.6715 8.41973 51.8236 7.75815 52.3335 6.73483H52.4138C52.088 7.3631 51.9652 7.77718 51.8991 8.23411L51.8897 8.31502H54.0427L54.902 2.08469H52.749L52.7395 2.20844C52.7065 2.63205 52.6782 3.03661 52.8434 3.66488H52.7631C52.4562 2.36551 51.5733 1.97998 50.4685 1.97998H50.426C48.6129 1.97998 47.2909 3.07469 47.0029 4.95474L46.9793 5.09277C46.6629 7.16795 47.5836 8.41973 49.34 8.41973ZM49.1323 5.24983L49.1417 5.17844C49.2645 4.30267 50.001 3.67916 50.9265 3.67916H50.9595C51.8802 3.67916 52.4326 4.29791 52.3335 5.12608L52.3004 5.34502C52.1446 6.1732 51.4506 6.73007 50.5299 6.73007H50.4968C49.5714 6.72531 49.019 6.1256 49.1323 5.24983Z" fill="black"/>
<path d="M58.1929 5.57824C58.3487 4.45022 58.9814 3.79339 59.9352 3.79339H59.9541C60.8464 3.79339 61.3894 4.35027 61.2572 5.30219L60.837 8.31978H62.99L63.481 4.77863C63.736 2.90811 62.8956 1.9895 61.1864 1.9895H61.1675C59.7321 1.9895 58.802 2.61777 58.2071 3.87907H58.1268C58.4857 3.16512 58.6084 2.61777 58.6792 2.14181V2.08469H56.5262L55.6669 8.31502H57.8199L58.1929 5.57824Z" fill="black"/>
<path d="M67.7304 8.65771H67.6785C66.8286 8.65771 66.3989 8.48161 66.3139 8.07704L66.3045 8.02468H64.1326L64.142 8.21031C64.2129 9.543 65.4924 10.3569 67.5557 10.3569H67.5888C70.0062 10.3569 71.484 9.18127 71.739 7.32026L72.4661 2.08469H70.3131V2.13705C70.3131 2.60349 70.2423 3.03661 70.332 3.66488H70.2517C69.9873 2.55113 69.2791 1.97998 67.8862 1.97998H67.8437C66.0495 1.97998 64.8408 3.01282 64.5953 4.73579L64.5859 4.80719C64.3309 6.65392 65.2422 7.75339 67.0458 7.75339H67.0883C68.4386 7.75339 69.4254 7.10132 69.7135 6.00661H69.7748L69.5907 7.3393C69.4632 8.24363 68.8164 8.65771 67.7304 8.65771ZM68.1931 6.06372H68.1412C67.1591 6.06372 66.6539 5.59728 66.7578 4.81195L66.7672 4.75007C66.8711 4.01709 67.5038 3.58397 68.4906 3.58397H68.5425C69.4254 3.58397 69.9967 4.01709 69.9684 4.63584L69.9495 4.75007V4.75959L69.9306 4.91666C69.7984 5.57824 69.0855 6.06372 68.1931 6.06372Z" fill="black"/>
<path d="M76.4511 8.41973H76.47C78.3964 8.41973 79.7373 7.76766 80.2708 6.3969L80.3322 6.23031H78.2831L78.2217 6.3255C78.0376 6.58252 77.4946 6.73959 76.7061 6.73959H76.6872C75.691 6.73959 75.181 6.49209 75.1102 5.78767H80.3983L80.4691 5.24031C80.7147 3.16512 79.5673 1.98474 77.2821 1.98474H77.2632C74.9072 1.98474 73.3491 3.15085 73.0705 5.1356L73.0611 5.18796C72.7825 7.22031 74.0337 8.41973 76.4511 8.41973ZM77.0035 3.53161H77.0224C77.844 3.53161 78.2925 3.84099 78.3964 4.49305H75.3132C75.6012 3.85527 76.1631 3.53161 77.0035 3.53161Z" fill="black"/>
<path d="M27.1536 9.96662L22.5831 0L15.6425 9.96662H18.6926L16.6056 24.3692C16.4593 25.3592 16.3129 26.373 16.1901 27.3677H16.0438L10.8123 12.7081H2.77626L0 32.6414H5.03788L6.511 21.9418C6.7093 20.6281 6.87928 19.3145 7.07758 18.0056H7.20034L12.4318 32.6414H20.4915L23.7399 9.97138H27.1536V9.96662Z" fill="#0E41F5"/>
<path d="M82.9102 12.7034H75.4455L64.8078 32.6414H70.5303L72.6692 28.4529L75.0488 23.7504L78.4672 17.0394H78.6608L80.2095 23.7504L81.3143 28.4529L82.2728 32.6414H88L82.9102 12.7034Z" fill="#0E41F5"/>
</svg>
